# xmcd
#
# Track frame offsets: 
#        180
#        13865
#        32085
#        47099
#        58784
#        75141
#        92390
#        108973
#        120003
#        134165
#        148497
#        167833
#
# Disc length: 2458 seconds
#
# Revision: 2
# Processed by: cddbd v1.5.2PL0 Copyright (c) Steve Scherf et al.
# Submitted via: ExactAudioCopy v1.0b3
#
DISCID=9909980c
DTITLE=Cathryn Craig - Porch Songs
DYEAR=1995
DGENRE=Folk
TTITLE0=Maybe Tonight (Baby I Will)
TTITLE1=That Ol' Guitar
TTITLE2=Walk Slowly Through This Life
TTITLE3=I'll Plead Innocent
TTITLE4=In His Dreams
TTITLE5=Forgiven
TTITLE6=Let's Get Swept Away
TTITLE7=I'll Be Fine In The Morning
TTITLE8=I Know The Truth
TTITLE9=If I Gave My Heart To You
TTITLE10=Two Hearts (One Love)
TTITLE11=I Don't Believe It Yet
EXTD=Goldrush - GOLDCD001 YEAR: 1995
EXTT0=
EXTT1=
EXTT2=
EXTT3=
EXTT4=
EXTT5=
EXTT6=
EXTT7=
EXTT8=
EXTT9=
EXTT10=
EXTT11=
PLAYORDER=
